<svg xmlns="http://www.w3.org/2000/svg" viewBox="0 0 64 64" role="img" aria-label="TikTok">
  <rect width="64" height="64" rx="15" fill="#050505"/>
  <path d="M37.8 15.2c1.5 4 4.2 6.5 8.7 6.8v7.2c-3.2-.1-6-1-8.5-2.7v13.2c0 8.1-5.3 13.1-12.4 13.1-6.4 0-11.1-4.6-11.1-10.6 0-6.4 5.1-10.7 11.2-10.7.7 0 1.4.1 2 .2v7.5c-.6-.2-1.2-.3-1.9-.3-2.3 0-4 1.4-4 3.4 0 2.1 1.7 3.5 3.8 3.5 2.5 0 4.1-1.5 4.1-4.9V15.2h8.1Z" fill="#25F4EE"/>
  <path d="M40.1 17.5c1.5 4 4.2 6.5 8.7 6.8v7.2c-3.2-.1-6-1-8.5-2.7V42c0 8.1-5.3 13.1-12.4 13.1-6.4 0-11.1-4.6-11.1-10.6 0-6.4 5.1-10.7 11.2-10.7.7 0 1.4.1 2 .2v7.5c-.6-.2-1.2-.3-1.9-.3-2.3 0-4 1.4-4 3.4 0 2.1 1.7 3.5 3.8 3.5 2.5 0 4.1-1.5 4.1-4.9V17.5h8.1Z" fill="#FE2C55"/>
  <path d="M38.9 16.4c1.5 4 4.2 6.5 8.7 6.8v7.2c-3.2-.1-6-1-8.5-2.7v13.2c0 8.1-5.3 13.1-12.4 13.1-6.4 0-11.1-4.6-11.1-10.6 0-6.4 5.1-10.7 11.2-10.7.7 0 1.4.1 2 .2v7.5c-.6-.2-1.2-.3-1.9-.3-2.3 0-4 1.4-4 3.4 0 2.1 1.7 3.5 3.8 3.5 2.5 0 4.1-1.5 4.1-4.9V16.4h8.1Z" fill="#fff"/>
</svg>
