<svg xmlns="http://www.w3.org/2000/svg" viewBox="0 0 64 64" role="img" aria-label="YouTube Shorts">
  <rect width="64" height="64" rx="15" fill="#fff"/>
  <path d="M49.3 20.1c-.4-1.5-1.6-2.7-3.1-3.1C43.5 16.3 32 16.3 32 16.3s-11.5 0-14.2.7c-1.5.4-2.7 1.6-3.1 3.1C14 22.8 14 28.4 14 28.4v7.2s0 5.6.7 8.3c.4 1.5 1.6 2.7 3.1 3.1 2.7.7 14.2.7 14.2.7s11.5 0 14.2-.7c1.5-.4 2.7-1.6 3.1-3.1.7-2.7.7-8.3.7-8.3v-7.2s0-5.6-.7-8.3Z" fill="#FF0033"/>
  <path d="M28.3 38.6V25.4L39.8 32 28.3 38.6Z" fill="#fff"/>
</svg>
